<?xml version="1.0" standalone="no"?>
        <!DOCTYPE svg PUBLIC "-//W3C//DTD SVG 1.1//EN" 
        "http://www.w3.org/Graphics/SVG/1.1/DTD/svg11.dtd">  <svg xmlns="http://www.w3.org/2000/svg" xmlns:xlink="http://www.w3.org/1999/xlink" width="40" zoomAndPan="magnify" viewBox="0 0 30 30.000001" height="40" preserveAspectRatio="xMidYMid meet" version="1.0"><defs><clipPath id="id1"><path d="M 3 23 L 25 23 L 25 23.554688 L 3 23.554688 Z M 3 23 " clip-rule="nonzero"/></clipPath><clipPath id="id2"><path d="M 2.328125 8 L 26.28125 8 L 26.28125 22 L 2.328125 22 Z M 2.328125 8 " clip-rule="nonzero"/></clipPath><clipPath id="id3"><path d="M 2.328125 6.132812 L 26.28125 6.132812 L 26.28125 23.554688 L 2.328125 23.554688 Z M 2.328125 6.132812 " clip-rule="nonzero"/></clipPath><clipPath id="id4"><path d="M 2.328125 6.132812 L 12 6.132812 L 12 16 L 2.328125 16 Z M 2.328125 6.132812 " clip-rule="nonzero"/></clipPath></defs><g clip-path="url(#id1)"><path fill="rgb(5.099487%, 36.859131%, 69.018555%)" d="M 4.996094 23.554688 L 23.609375 23.554688 C 24.078125 23.554688 24.515625 23.429688 24.898438 23.21875 L 3.710938 23.21875 C 4.09375 23.429688 4.53125 23.554688 4.996094 23.554688 Z M 4.996094 23.554688 " fill-opacity="1" fill-rule="nonzero"/></g><g clip-path="url(#id2)"><path fill="rgb(93.328857%, 93.328857%, 93.328857%)" d="M 7.988281 15.847656 L 2.335938 15.847656 L 2.335938 17.523438 L 26.269531 17.523438 L 26.269531 15.847656 Z M 2.335938 20.875 C 2.335938 20.988281 2.347656 21.097656 2.359375 21.207031 L 26.246094 21.207031 C 26.261719 21.097656 26.269531 20.988281 26.269531 20.875 L 26.269531 19.535156 L 2.335938 19.535156 Z M 11.644531 12.164062 L 26.269531 12.164062 L 26.269531 13.839844 L 11.644531 13.839844 Z M 11.644531 8.480469 L 11.644531 10.152344 L 26.269531 10.152344 L 26.269531 8.8125 C 26.269531 8.699219 26.261719 8.589844 26.246094 8.480469 Z M 11.644531 8.480469 " fill-opacity="1" fill-rule="nonzero"/></g><g clip-path="url(#id3)"><path fill="rgb(5.099487%, 36.859131%, 69.018555%)" d="M 11.644531 10.152344 L 26.269531 10.152344 L 26.269531 12.164062 L 11.644531 12.164062 Z M 2.335938 17.523438 L 26.269531 17.523438 L 26.269531 19.535156 L 2.335938 19.535156 Z M 3.710938 23.21875 L 24.898438 23.21875 C 25.621094 22.8125 26.140625 22.074219 26.246094 21.207031 L 2.359375 21.207031 C 2.46875 22.074219 2.984375 22.8125 3.710938 23.21875 Z M 2.335938 12.164062 L 5.992188 12.164062 L 5.992188 15.847656 L 2.335938 15.847656 Z M 11.644531 13.839844 L 11.644531 12.164062 L 7.988281 12.164062 L 7.988281 15.847656 L 26.269531 15.847656 L 26.269531 13.839844 Z M 24.898438 6.46875 C 24.515625 6.253906 24.078125 6.132812 23.609375 6.132812 L 4.996094 6.132812 C 4.53125 6.132812 4.09375 6.253906 3.710938 6.46875 C 2.984375 6.875 2.46875 7.613281 2.359375 8.480469 C 2.347656 8.589844 2.335938 8.699219 2.335938 8.8125 L 2.335938 10.152344 L 5.992188 10.152344 L 5.992188 6.46875 L 7.988281 6.46875 L 7.988281 10.152344 L 11.644531 10.152344 L 11.644531 8.480469 L 26.246094 8.480469 C 26.140625 7.613281 25.621094 6.875 24.898438 6.46875 Z M 24.898438 6.46875 " fill-opacity="1" fill-rule="nonzero"/></g><g clip-path="url(#id4)"><path fill="rgb(93.328857%, 93.328857%, 93.328857%)" d="M 7.988281 10.152344 L 7.988281 6.132812 L 5.992188 6.132812 L 5.992188 10.152344 L 2.335938 10.152344 L 2.335938 12.164062 L 5.992188 12.164062 L 5.992188 15.847656 L 7.988281 15.847656 L 7.988281 12.164062 L 11.644531 12.164062 L 11.644531 10.152344 Z M 7.988281 10.152344 " fill-opacity="1" fill-rule="nonzero"/></g></svg>  